<svg id="Livello_1" data-name="Livello 1" xmlns="http://www.w3.org/2000/svg" viewBox="0 0 705.36 475.87"><title>DIBRIS_UniGe_black</title><path d="M175.91,364.87Q193,377.73,193,412q0,33.59-16.71,47.32t-42.77,13.73H98.85V352h31.67Q158.85,352,175.91,364.87Zm-51.34,6v83.28h10.5q14.87,0,23-9.19t8.14-33q0-16.45-4.12-25.55t-10.93-12.33q-6.82-3.24-16.62-3.24Z"/><path d="M238.28,473.07H212.56V352h25.72Z"/><path d="M345.78,417.88q7.61,6.56,7.61,20,0,19.06-13.65,27.11t-38,8.05H264V352h33.07q24.84,0,38,7.35T348.14,383q0,10.66-6.38,17.23A32,32,0,0,1,325.92,409Q338.17,411.32,345.78,417.88Zm-56.07-47.32v30.61h12.6q9.44,0,14.52-3.94t5.07-12q0-8-5.42-11.37t-17-3.32Zm30.62,79.86q6.29-3.59,6.29-13.56,0-18.19-22.39-18.2H289.71V454H302Q314,454,320.33,450.42Z"/><path d="M410.42,425.66H397.3v47.41H371.58V352h37.79q24.31,0,36.56,9t12.25,27.2q0,12.07-5.78,19.77t-18,12.95l31.14,52.13H436.31ZM397.3,407.47h13.47q10.32,0,15.57-4.64t5.25-14.61q0-9.27-5.51-13.55t-17.24-4.29H397.3Z"/><path d="M504.71,473.07H479V352h25.72Z"/><path d="M590.17,353a55.56,55.56,0,0,1,17.93,11.46L595.85,378.6a47.48,47.48,0,0,0-12.94-7.7,38.79,38.79,0,0,0-13.82-2.44q-8.05,0-12.86,3.41a11.18,11.18,0,0,0-4.81,9.71,12,12,0,0,0,2,7.17q2,2.81,7.09,5.25a117.45,117.45,0,0,0,15.22,5.6q18,5.76,26.94,14.25t8.92,24.23a34.9,34.9,0,0,1-5.6,19.68q-5.6,8.49-16.27,13.3t-25,4.81a67.47,67.47,0,0,1-25.54-4.55,58.74,58.74,0,0,1-19.24-12.42l13.3-14.52a50.91,50.91,0,0,0,14.34,9A43.23,43.23,0,0,0,564,456.45q9.45,0,15.14-4.37t5.68-12.25a15.17,15.17,0,0,0-2-8.13,17.73,17.73,0,0,0-6.91-5.86,81.25,81.25,0,0,0-14.17-5.43q-19.77-6.12-28.25-14.69T525,383.33a30.58,30.58,0,0,1,5.43-17.94,34.83,34.83,0,0,1,15-12,54.14,54.14,0,0,1,21.87-4.2Q580.47,349.21,590.17,353Z"/><path d="M127.12,32c0-3.69-.49-4.67-3.94-4.92l-15.49-1.72V9.59h65.65V25.32l-16.47,2c-3.69.49-3.94,1-3.94,4.67v94.42c0,44.26-24.83,64.18-67.37,64.18-47,0-66.14-21.64-66.14-64.92V32c0-3.69-.49-4.67-3.93-4.92L0,25.32V9.59H68.6V25.32l-16.48,2c-3.68.49-3.93,1-3.93,4.67v89.5c0,31.23,10.82,45.25,38.85,45.25,27.79,0,40.08-11.56,40.08-44.51Z"/><path d="M264.3,187.6V172.11l12.29-1.47c3.44-.49,3.94-2,3.94-4.92v-57c0-14.76-1.72-27.05-17.46-27.05-12.54,0-25.57,6.88-33.69,12.79v70.81c0,3.93.25,4.42,3.94,4.92l13,1.72V187.6h-61v-16l11.8-1.47c3.45-.5,3.94-1.23,3.94-4.92V86.06c0-2.71-.74-4.43-3.2-5.17l-13.52-4.67,2.46-15.74h36.39l2,13.53,1,.24C240,64.91,254.46,58,272.17,58c26.55,0,36.63,16.72,36.63,45v62.21c0,3.93.25,4.42,3.94,4.92l13.52,1.72V187.6Z"/><path d="M336.82,187.6V172.11l14.75-2c3.44-.5,3.93-1.23,3.93-4.92V86.06c0-2.71-.73-4.43-3.19-5.17l-13.53-4.67,2.46-15.74h42.54V165.23c0,3.93.24,4.42,3.93,4.92l14.51,1.72V187.6ZM366.57,36.39c-11.8,0-18.44-6.64-18.44-18.44C348.13,6.39,354.77,0,366.57,0,378.12,0,385,6.39,385,18,385,29.75,378.12,36.39,366.57,36.39Z"/><path d="M571.37,122.44c-3,.25-3.93,1-3.93,3.45v52.86c-18.69,8.85-43.27,11.81-63.68,11.81-67.13,0-90.24-39.59-90.24-92.45,0-52.62,30.24-91.72,92.2-91.72,17.71,0,40.58,4.43,55.57,14.26V67.12l-27.29-2L530.31,43c-.73-3.44-1.72-4.43-3.93-4.92a91.35,91.35,0,0,0-22.62-3.2c-31.72,0-50.65,24.1-50.65,62.7,0,40.57,17.21,64.67,52.37,64.67a132.13,132.13,0,0,0,20.41-1.72c2.7-.49,3.93-1.23,3.93-4.43V123.92H502.53L506,101.79h75.49v19.67Z"/><path d="M704.38,178c-15.25,7.38-32,12.55-50.41,12.55-47.45,0-63.68-29.51-63.68-67.87,0-44.5,27.29-65.65,61-65.65,32.45,0,54.09,17,54.09,59.51,0,3-.25,11.55-.49,16.47H629.63c1.23,17.46,8.85,29,29,29,9.59,0,19.92-2.21,36.64-8.36ZM669,109.66C668.72,89,660.61,83.6,650.53,83.6c-10.57,0-19.18,5.9-20.66,26.06Z"/><rect y="266.3" width="705.36" height="6"/></svg>